<svg width="57" height="57" viewBox="0 0 57 57" fill="none" xmlns="http://www.w3.org/2000/svg">
<path fill-rule="evenodd" clip-rule="evenodd" d="M34.7911 32.3144C35.2275 32.3931 35.6698 32.4488 36.1166 32.4808C39.7342 32.7399 43.2859 31.415 45.85 28.85L53.35 21.35C58.0872 16.4453 58.0194 8.64894 53.1977 3.82727C48.3761 -0.994405 40.5798 -1.06215 35.675 3.675L31.375 7.95L29.1968 17.6834C28.7644 17.6059 28.3261 17.5509 27.8834 17.5192C24.2658 17.2601 20.7141 18.585 18.15 21.15L10.65 28.65C5.91286 33.5547 5.98061 41.3511 10.8023 46.1727C15.624 50.9944 23.4203 51.0622 28.325 46.325L32.6 42.05L34.7911 32.3144Z" fill="#4EB548" fill-opacity="0.15"/>
<path d="M22 32.5C24.1724 35.4042 27.4991 37.2218 31.1166 37.4808C34.7342 37.7399 38.2859 36.415 40.85 33.85L48.35 26.35C53.0872 21.4453 53.0194 13.6489 48.1977 8.82727C43.3761 4.0056 35.5797 3.93785 30.675 8.675L26.375 12.95" stroke="#03A84E" stroke-width="3" stroke-linecap="round" stroke-linejoin="round"/>
<path d="M32 27.5C29.8276 24.5958 26.5009 22.7782 22.8834 22.5192C19.2658 22.2601 15.7141 23.585 13.15 26.15L5.65001 33.65C0.912861 38.5547 0.980609 46.3511 5.80228 51.1727C10.624 55.9944 18.4203 56.0622 23.325 51.325L27.6 47.05" stroke="#03A84E" stroke-width="3" stroke-linecap="round" stroke-linejoin="round"/>
</svg>
